<?xml version="1.0" standalone="no"?>
<!DOCTYPE svg PUBLIC "-//W3C//DTD SVG 20010904//EN"
 "http://www.w3.org/TR/2001/REC-SVG-20010904/DTD/svg10.dtd">
<svg version="1.0" xmlns="http://www.w3.org/2000/svg"
 width="303.000000pt" height="303.000000pt" viewBox="0 0 303.000000 303.000000"
 preserveAspectRatio="xMidYMid meet">
<metadata>
Created by potrace 1.11, written by Peter Selinger 2001-2013
</metadata>
<g transform="translate(0.000000,303.000000) scale(0.100000,-0.100000)"
fill="#000000" stroke="none">
<path d="M0 1520 l0 -1360 1515 0 1515 0 0 1360 0 1360 -1515 0 -1515 0 0
-1360z m1515 655 c105 -35 162 -71 246 -154 122 -122 179 -260 179 -434 0
-138 -41 -264 -117 -363 -34 -45 -34 -46 -16 -66 10 -12 38 -34 62 -50 80 -50
151 -36 256 53 110 93 250 129 367 95 59 -17 178 -90 178 -109 0 -6 -30 -41
-66 -78 l-66 -67 -49 31 c-85 52 -146 40 -258 -51 -107 -87 -225 -124 -333
-102 -76 15 -118 35 -188 92 -93 75 -100 80 -137 88 -49 11 -114 -10 -169 -56
l-46 -37 -81 6 c-224 17 -408 141 -508 342 -186 373 40 810 459 885 73 13 208
2 287 -25z"/>
<path d="M1192 1981 c-111 -38 -202 -124 -254 -237 -18 -40 -22 -68 -22 -154
-1 -98 1 -109 31 -173 57 -120 181 -217 296 -233 36 -5 51 -2 93 24 61 38 143
62 207 62 45 0 53 4 87 42 173 188 130 488 -88 627 -97 61 -244 79 -350 42z"/>
</g>
</svg>
